PathFileType	4	(X/Y/Z)	SB25.trc
DataRate	CameraRate	NumFrames	NumMarkers	Units	OrigDataRate	OrigDataStartFrame	OrigNumFrames
60.0	60.0	6	25	m	60.0	465	531
Frame#	Time	R.ASIS			L.ASIS			V.Sacral			R.Knee.Lat			R.Knee.Med			L.Knee.Lat			L.Knee.Med			R.Ankle.Lat			R.Ankle.Med			L.Ankle.Lat			L.Ankle.Med			R.Shank.Front			L.Shank.Front			R.Heel			L.Heel			R.Toe.Tip			L.Toe.Tip			R.Midfoot.Lat			L.Midfoot.Lat			R.Toe.Med			L.Toe.Med			Sternum			Top.Head			R.Acromium			L.Acromium		
		X1	Y1	Z1	X2	Y2	Z2	X3	Y3	Z3	X4	Y4	Z4	X5	Y5	Z5	X6	Y6	Z6	X7	Y7	Z7	X8	Y8	Z8	X9	Y9	Z9	X10	Y10	Z10	X11	Y11	Z11	X12	Y12	Z12	X13	Y13	Z13	X14	Y14	Z14	X15	Y15	Z15	X16	Y16	Z16	X17	Y17	Z17	X18	Y18	Z18	X19	Y19	Z19	X20	Y20	Z20	X21	Y21	Z21	X22	Y22	Z22	X23	Y23	Z23	X24	Y24	Z24	X25	Y25	Z25

465	7.733333	55.125871	0.955309	0.148614	55.078845	0.953394	-0.165394	54.961518	0.846185	0.012620	54.893627	0.382889	0.044217	54.893003	0.402034	-0.038899	55.329130	0.459467	-0.060164	55.324748	0.474783	0.025768	54.580873	0.114867	-0.023680	54.579623	0.126353	-0.084479	55.170613	0.080407	-0.006147	55.163312	0.088065	0.055069	54.908020	0.333114	-0.012201	55.366985	0.423093	-0.004578	54.477527	0.162728	-0.086359	55.074356	0.036374	0.041406	54.512255	-0.122525	-0.130054	55.307018	-0.126353	0.084064	54.475337	-0.032546	-0.078537	55.225259	-0.086150	0.024619	54.509857	-0.013401	-0.161653	55.227030	-0.061262	0.113680	55.058714	1.409033	0.001881	54.913546	1.742147	0.048389	54.993217	1.363086	0.205655	54.902809	1.374573	-0.154240
466	7.750000	55.245801	0.959138	0.147052	55.196167	0.953394	-0.167686	55.079049	0.851929	0.014604	54.988111	0.396290	0.048182	54.990094	0.413520	-0.034204	55.441655	0.459467	-0.055364	55.438003	0.476697	0.027961	54.655334	0.149327	-0.008453	54.654084	0.160814	-0.069252	55.375015	0.055519	0.001888	55.366045	0.065091	0.064043	54.999166	0.342686	-0.006359	55.489730	0.434579	-0.001134	54.562729	0.208675	-0.079370	55.285640	-0.013401	0.049962	54.551988	-0.080407	-0.106276	55.550423	-0.130182	0.083340	54.533111	0.017230	-0.053924	55.459382	-0.103380	0.026919	54.573576	0.022973	-0.138187	55.456877	-0.080407	0.116188	55.175828	1.412862	-0.004687	55.035874	1.745975	0.043282	55.123367	1.368829	0.202738	55.009181	1.376487	-0.152569
467	7.766667	55.360724	0.959138	0.148306	55.317035	0.953394	-0.167579	55.195433	0.851929	0.010644	55.093753	0.400119	0.052461	55.097405	0.415435	-0.030864	55.548758	0.451809	-0.056300	55.541768	0.465211	0.028902	54.736260	0.189530	-0.001255	54.736678	0.201017	-0.062993	55.567319	0.040203	0.007941	55.557411	0.047861	0.068427	55.099594	0.344600	-0.003541	55.601108	0.432665	-0.002278	54.655544	0.260365	-0.074466	55.487226	-0.042118	0.052991	54.607260	-0.024888	-0.097827	55.763793	-0.112952	0.099509	54.600271	0.074663	-0.047770	55.674212	-0.099551	0.037874	54.641675	0.072749	-0.130364	55.663156	-0.078492	0.127560	55.296487	1.414776	-0.008855	55.154865	1.745975	0.040052	55.241419	1.374573	0.197839	55.136515	1.374573	-0.160492
468	7.783333	55.471372	0.955309	0.149769	55.440511	0.951480	-0.166742	55.310149	0.851929	0.007622	55.210554	0.394376	0.057052	55.214936	0.411606	-0.028880	55.649707	0.436494	-0.060365	55.635835	0.444152	0.024316	54.829805	0.231648	0.001041	54.831892	0.243135	-0.061635	55.743250	0.032546	0.012221	55.733342	0.038289	0.072707	55.209512	0.340772	0.000529	55.704665	0.425007	-0.005613	54.758579	0.312055	-0.070918	55.676715	-0.055519	0.054038	54.673273	0.036374	-0.097617	55.955263	-0.082321	0.123604	54.680050	0.134011	-0.046517	55.868811	-0.088065	0.055815	54.721454	0.130182	-0.129111	55.849933	-0.065091	0.143311	55.418816	1.410947	-0.013963	55.272918	1.744061	0.035153	55.352589	1.378402	0.192419	55.273131	1.368829	-0.171439
469	7.800000	55.583689	0.953394	0.150293	55.560440	0.947651	-0.168303	55.426532	0.848100	0.003662	55.333299	0.386718	0.060496	55.340288	0.400119	-0.024706	55.748049	0.419264	-0.065160	55.728963	0.425007	0.018060	54.937846	0.269937	0.001774	54.942540	0.279509	-0.060172	55.894257	0.030631	0.015144	55.882680	0.036374	0.076569	55.326313	0.335028	0.005120	55.802277	0.413520	-0.007801	54.874233	0.356087	-0.072271	55.838880	-0.067006	0.057275	54.760665	0.091893	-0.098450	56.114925	-0.065091	0.145820	54.775994	0.189530	-0.047766	56.033270	-0.080407	0.070941	54.817398	0.179958	-0.130360	56.006571	-0.057433	0.156247	55.541144	1.407118	-0.019070	55.390032	1.742147	0.028586	55.467096	1.378402	0.185122	55.405471	1.363086	-0.182177
470	7.816667	55.697466	0.947651	0.145602	55.676824	0.941908	-0.172264	55.540309	0.842357	-0.001028	55.463866	0.375232	0.066131	55.470855	0.386718	-0.019071	55.843993	0.402034	-0.066409	55.823238	0.409692	0.017750	55.057775	0.302483	0.000212	55.064138	0.310140	-0.062672	56.022217	0.028717	0.020049	56.010640	0.034460	0.081473	55.450935	0.325456	0.011901	55.898221	0.402034	-0.009050	55.006781	0.392462	-0.078734	55.967048	-0.076578	0.066455	54.866620	0.139755	-0.105330	56.242571	-0.068920	0.161883	54.890501	0.237391	-0.055063	56.160916	-0.086150	0.087004	54.935450	0.222076	-0.135259	56.130671	-0.059348	0.169911	55.659196	1.401375	-0.023969	55.508084	1.736403	0.023687	55.585148	1.374573	0.180223	55.525192	1.359257	-0.188014
